<svg version="1.1" id="Layer_1" xmlns="http://www.w3.org/2000/svg" xmlns:xlink="http://www.w3.org/1999/xlink" x="0px" y="0px"
	 width="100%" viewBox="0 0 50 50" enable-background="new 0 0 50 50" xml:space="preserve">
<path fill="#000000" opacity="1.000000" stroke="none" 
	d="
M22.000307,51.000000 
	C14.684175,51.000000 7.867962,51.000000 1.025874,51.000000 
	C1.025874,34.392376 1.025874,17.784697 1.025874,1.088509 
	C17.565485,1.088509 34.131599,1.088509 50.848858,1.088509 
	C50.848858,17.665627 50.848858,34.332649 50.848858,51.000000 
	C41.452614,51.000000 31.976419,51.000000 22.000307,51.000000 
M30.000000,30.499329 
	C30.000000,21.388201 30.000000,12.277072 30.000000,3.390410 
	C25.267820,1.699277 23.036631,4.881792 21.151592,7.602478 
	C16.925495,13.702036 12.273822,18.534859 3.982287,17.075634 
	C3.762030,17.036869 3.472256,17.393106 3.263425,17.532703 
	C3.263425,23.314238 3.263425,29.048044 3.263425,35.495060 
	C11.126814,32.666325 15.584404,37.337875 19.845768,42.375786 
	C20.885426,43.604900 21.553167,45.275356 22.801922,46.171654 
	C24.759613,47.576809 27.066072,48.496052 30.000000,50.025089 
	C30.000000,42.770493 30.000000,37.134583 30.000000,30.499329 
M39.048691,13.421350 
	C43.176781,15.650504 45.512058,19.097628 45.994469,23.761848 
	C46.661125,30.207541 44.753338,35.507095 38.839783,38.863834 
	C41.216778,42.953613 42.497353,39.641205 44.031155,38.464691 
	C51.431183,32.788456 51.123867,17.815250 42.374634,12.052805 
	C41.692814,11.603743 40.168842,12.433333 39.048691,13.421350 
M39.399315,35.062302 
	C44.253086,31.274405 43.652992,26.019506 42.397282,21.148010 
	C41.822014,18.916264 39.091301,17.240118 37.338093,15.312005 
	C36.133026,16.805983 35.979652,17.284805 36.041107,17.734249 
	C36.103977,18.194025 36.299973,18.680050 36.570232,19.060408 
	C41.304539,25.723341 41.285969,25.929991 36.753468,32.814854 
	C36.281982,33.531036 36.340488,34.596127 36.153084,35.499336 
	C37.060947,35.551067 37.968815,35.602802 39.399315,35.062302 
M32.038452,29.224699 
	C33.288303,31.639875 35.331585,31.453154 35.882133,29.335365 
	C36.476616,27.048601 35.679333,24.374937 35.290100,21.901363 
	C35.256031,21.684860 33.743221,21.701046 32.917259,21.609152 
	C33.010864,22.421940 33.281998,23.262539 33.159958,24.041544 
	C32.928303,25.520250 32.471485,26.963686 32.038452,29.224699 
z"/>
<path fill="#FFFFFF" opacity="1.000000" stroke="none" 
	d="
M30.000000,30.999002 
	C30.000000,37.134583 30.000000,42.770493 30.000000,50.025089 
	C27.066072,48.496052 24.759613,47.576809 22.801922,46.171654 
	C21.553167,45.275356 20.885426,43.604900 19.845768,42.375786 
	C15.584404,37.337875 11.126814,32.666325 3.263425,35.495060 
	C3.263425,29.048044 3.263425,23.314238 3.263425,17.532703 
	C3.472256,17.393106 3.762030,17.036869 3.982287,17.075634 
	C12.273822,18.534859 16.925495,13.702036 21.151592,7.602478 
	C23.036631,4.881792 25.267820,1.699277 30.000000,3.390410 
	C30.000000,12.277072 30.000000,21.388201 30.000000,30.999002 
M15.000000,27.355049 
	C14.699115,36.613319 22.893999,39.856510 27.757545,46.603928 
	C27.757545,32.430756 27.757545,19.432810 27.757545,5.311508 
	C22.439497,12.544212 13.668631,16.339241 15.000000,27.355049 
M5.000009,23.702019 
	C4.999985,33.891396 4.999985,33.891396 12.771040,32.411152 
	C12.771040,28.022512 12.771040,23.640814 12.771040,18.819889 
	C9.824997,20.000927 5.115571,16.457508 5.000009,23.702019 
z"/>
<path fill="#FFFFFF" opacity="1.000000" stroke="none" 
	d="
M39.042488,13.044994 
	C40.168842,12.433333 41.692814,11.603743 42.374634,12.052805 
	C51.123867,17.815250 51.431183,32.788456 44.031155,38.464691 
	C42.497353,39.641205 41.216778,42.953613 38.839783,38.863834 
	C44.753338,35.507095 46.661125,30.207541 45.994469,23.761848 
	C45.512058,19.097628 43.176781,15.650504 39.042488,13.044994 
z"/>
<path fill="#FFFFFF" opacity="1.000000" stroke="none" 
	d="
M39.137997,35.358421 
	C37.968815,35.602802 37.060947,35.551067 36.153084,35.499336 
	C36.340488,34.596127 36.281982,33.531036 36.753468,32.814854 
	C41.285969,25.929991 41.304539,25.723341 36.570232,19.060408 
	C36.299973,18.680050 36.103977,18.194025 36.041107,17.734249 
	C35.979652,17.284805 36.133026,16.805983 37.338093,15.312005 
	C39.091301,17.240118 41.822014,18.916264 42.397282,21.148010 
	C43.652992,26.019506 44.253086,31.274405 39.137997,35.358421 
z"/>
<path fill="#FFFFFF" opacity="1.000000" stroke="none" 
	d="
M32.073318,28.823235 
	C32.471485,26.963686 32.928303,25.520250 33.159958,24.041544 
	C33.281998,23.262539 33.010864,22.421940 32.917259,21.609152 
	C33.743221,21.701046 35.256031,21.684860 35.290100,21.901363 
	C35.679333,24.374937 36.476616,27.048601 35.882133,29.335365 
	C35.331585,31.453154 33.288303,31.639875 32.073318,28.823235 
z"/>
<path fill="#000000" opacity="1.000000" stroke="none" 
	d="
M15.000000,26.903330 
	C13.668631,16.339241 22.439497,12.544212 27.757545,5.311508 
	C27.757545,19.432810 27.757545,32.430756 27.757545,46.603928 
	C22.893999,39.856510 14.699115,36.613319 15.000000,26.903330 
z"/>
<path fill="#000000" opacity="1.000000" stroke="none" 
	d="
M5.000072,23.240311 
	C5.115571,16.457508 9.824997,20.000927 12.771040,18.819889 
	C12.771040,23.640814 12.771040,28.022512 12.771040,32.411152 
	C4.999985,33.891396 4.999985,33.891396 5.000072,23.240311 
z"/>
</svg>